PathFileType	4	(X/Y/Z)	C:/Users/beibeiliu/ov580/test_trc\sequence.24_training_dense_right.trc
DataRate	CameraRate	NumFrames	NumMarkers	Units	OrigDataRate	OrigDataStartFrame	OrigNumFrames
120	120	20	19	mm	120	1	83
Frame#	Time	ThumbCMC			ThumbMCP			ThumbIP			ThumbTip			IndexMCP			IndexPIP			IndexTip			MiddleMCP			MiddlePIP			MiddleTip			RingMCP			RingPIP			RingTip			PinkyMCP			PinkyPIP			PinkyTip			BackHand1			BackHand2			BackHand3	
		X0	Y0	Z0	X1	Y1	Z1	X2	Y2	Z2	X3	Y3	Z3	X4	Y4	Z4	X5	Y5	Z5	X6	Y6	Z6	X7	Y7	Z7	X8	Y8	Z8	X9	Y9	Z9	X10	Y10	Z10	X11	Y11	Z11	X12	Y12	Z12	X13	Y13	Z13	X14	Y14	Z14	X15	Y15	Z15	X16	Y16	Z16	X17	Y17	Z17	X18	Y18	Z18	
0	0	60.8211	49.5631	25.2977	37.8517	36.2	7.98777	28.0271	28.7179	-12.9957	19.6425	22.202	-28.9173	56.2543	51.0517	-42.8581	48.4129	38.6961	-65.4764	38.9677	30.0112	-80.6468	79.3262	45.869	-51.8204	70.8822	36.9444	-73.4466	68.9165	22.5796	-96.3183	95.9161	38.7853	-47.6492	92.9163	30.0731	-69.2839	91.7997	20.2106	-89.2308	114.168	31.7437	-36.6068	118.004	25.0194	-52.9071	123.672	21.8769	-67.5102	103.178	56.2046	-5.36268	107.327	64.2297	20.9025	81.0656	67.4522	11.2011	
1	0.00833333	57.3864	49.1543	20.6782	41.621	35.751	8.19309	28.885	29.096	-14.9151	16.7214	21.4618	-26.855	55.6515	51.3698	-42.5469	45.7841	41.2212	-65.3294	41.1801	26.6815	-83.558	75.3913	47.6576	-50.3117	68.7415	35.5527	-76.7776	67.0534	21.1569	-97.5374	92.7739	40.122	-49.8656	96.495	29.9746	-66.9337	88.6673	19.529	-88.323	112.531	32.3881	-36.2812	116.444	24.2827	-54.9906	116.141	18.8908	-72.7816	102.243	56.254	-4.79979	106.519	62.8212	21.1817	79.3143	68.261	8.70359	
2	0.0166667	57.1144	49.7293	25.6184	41.7343	36.2626	4.81083	27.7848	29.9858	-14.821	20.2216	23.342	-30.59	56.6949	54.34	-43.2799	46.4255	45.8676	-62.5096	42.7476	30.2348	-81.2704	75.2319	49.707	-55.335	68.7691	38.691	-77.0511	66.014	19.5228	-97.4338	95.8913	42.1395	-49.0764	91.7893	32.8611	-67.3079	86.6796	18.1004	-86.2813	112.519	34.8142	-38.8279	114.242	24.6579	-53.8583	111.995	17.7038	-70.5416	103.644	57.4431	-5.72035	109.666	62.9012	18.5826	82.363	69.288	10.4674	
3	0.025	56.7828	51.9599	22.1102	40.3905	38.5292	5.98302	30.0346	32.8322	-18.7169	20.6667	24.9361	-34.556	58.0365	62.0507	-41.176	48.1124	49.6683	-66.8447	44.9039	31.3976	-81.1517	81.8096	55.1482	-53.6041	73.0183	41.2427	-78.5497	66.6084	19.1185	-91.6514	95.5618	47.6907	-50.7357	90.637	33.4718	-71.6591	79.6015	16.0038	-81.8967	112.445	37.1914	-38.0938	110.934	27.0307	-54.1948	101.695	10.7942	-71.9337	103.604	61.1118	-4.45041	110.192	60.4896	22.8368	80.6885	71.079	8.89557	
4	0.0333333	57.5151	57.1552	19.7122	43.0889	43.3014	2.19761	32.3314	38.0599	-20.5373	26.3612	29.7051	-40.1851	63.9729	70.1631	-45.076	52.6334	60.2315	-66.2447	47.2995	34.5401	-74.6752	81.6655	64.9133	-49.4687	71.6279	47.1667	-76.8145	61.3905	22.8273	-80.9773	97.5773	52.6689	-45.767	85.6629	37.1315	-69.6283	72.4647	14.9311	-71.0886	114.161	39.634	-36.3693	104.559	26.898	-58.6585	88.2296	10.5166	-61.8815	107.555	61.9506	-0.641167	115.929	61.3522	23.2343	90.0085	72.3147	12.7836	
5	0.0416667	60.1697	61.1887	17.0305	46.7549	48.5195	-1.18475	36.807	43.355	-19.752	30.8336	36.478	-41.0304	66.2471	77.8808	-43.5855	59.2309	61.729	-66.8504	42.7405	36.6976	-62.8882	87.1379	68.9923	-50.5138	75.4029	51.4621	-74.2978	60.4151	27.0344	-65.0012	97.7568	56.5022	-49.9872	87.5817	38.3564	-66.594	70.2971	22.0116	-55.4484	114.031	40.9019	-41.5146	100.511	31.0369	-55.9891	78.8592	12.473	-48.1294	113.645	61.6029	-4.17557	114.937	61.674	20.9886	92.9012	75.7238	9.30107	
6	0.05	64.0944	63.0266	16.4632	44.4375	53.4692	-1.78183	33.9743	49.0839	-25.0134	29.8393	40.3741	-44.6061	70.9874	81.7553	-44.3341	56.0293	66.0227	-64.3011	50.439	40.273	-52.5979	86.3087	72.7321	-51.7988	71.937	51.8933	-69.4735	61.8847	31.1247	-47.2914	101.348	55.373	-51.591	84.7882	36.3153	-61.5264	72.1727	23.4668	-41.4403	111.878	43.552	-39.7562	95.2819	26.4704	-51.7568	77.3119	19.0236	-32.1167	113.875	64.9216	-0.94297	114.796	61.7166	23.5844	93.7573	77.7815	10.6295	
7	0.0583333	64.0362	64.1837	20.2571	45.775	56.1513	-3.34875	36.5853	52.2781	-25.5397	32.448	45.0237	-48.4234	71.2204	85.5175	-44.4293	58.3726	63.6754	-60.4453	50.3804	43.5241	-39.9139	86.9377	70.3256	-53.2336	69.3568	48.9016	-62.8921	66.5155	34.9748	-31.4938	99.3401	52.9766	-51.7399	81.2071	33.4844	-54.5845	71.2962	29.8013	-30.2875	111.031	43.4268	-39.7181	91.625	29.5793	-48.4	78.1309	22.8185	-23.3354	115.185	67.2672	-4.97154	117.019	60.4957	25.4558	94.5241	79.4712	14.7146	
8	0.0666667	67.3226	65.3512	15.6988	46.4424	57.4364	-3.00736	39.5819	53.9897	-23.9833	33.3981	47.0677	-46.4006	72.5553	83.9968	-44.315	56.4506	65.0386	-57.222	52.4522	46.711	-36.5882	87.1369	69.728	-50.9036	67.2492	45.8058	-55.809	65.0252	38.2646	-29.7078	97.3082	55.5143	-46.8335	78.0395	36.574	-49.9536	74.1782	32.2572	-19.6453	108.385	40.9855	-40.9459	86.0288	29.3726	-41.2599	81.4203	24.8889	-17.5064	119.557	63.6759	-3.81657	119.813	57.7178	22.3806	98.4134	76.3352	15.6386	
9	0.075	65.4768	65.647	21.4302	46.5475	56.7806	-3.42272	38.8229	54.2582	-23.9379	34.6227	47.8566	-48.1902	74.3615	82.8725	-43.5233	55.8189	67.599	-54.7187	53.512	48.0412	-29.3597	82.7818	70.1123	-51.1951	65.5788	45.1394	-52.6509	63.8141	38.9897	-24.7254	96.75	53.3462	-45.8673	75.9032	36.3487	-46.2407	73.6631	34.4425	-17.3196	107.841	37.7217	-40.4788	84.9085	27.1556	-38.1282	79.34	30.4565	-12.9689	114.403	63.0898	-0.272706	119.199	56.3767	21.8862	101.408	75.8261	17.2373	
10	0.0833333	68.8497	65.6502	18.4685	46.1916	58.3209	-5.33091	37.4893	53.6151	-25.9839	37.441	46.3073	-48.9284	75.1473	84.3092	-39.5412	55.4618	63.4872	-52.2086	55.7274	46.2348	-30.7221	85.8687	66.6826	-49.7361	69.0802	44.1519	-54.4605	66.7514	38.1913	-22.8116	96.0648	49.2956	-47.644	76.2279	33.4911	-43.9825	74.7771	33.7921	-15.3712	107.869	35.2305	-38.802	85.074	26.5939	-36.117	81.6857	31.466	-8.0197	115.906	61.7866	2.02606	119.813	56.3833	27.2098	100.097	73.9321	17.7572	
11	0.0916667	68.2562	64.8041	22.3138	53.0432	57.2337	-3.67471	41.9997	54.2376	-29.8224	38.9884	46.6668	-51.5828	74.9631	83.8904	-41.6364	59.8974	62.3928	-53.1547	56.9391	48.1553	-26.9091	87.7087	69.3055	-46.6309	69.2873	44.1272	-52.9077	65.5791	40.1288	-21.6445	98.1372	50.1195	-46.7536	79.0113	32.6288	-43.1592	77.339	36.0327	-13.5167	104.95	38.6183	-39.3837	85.2546	25.4086	-33.4289	84.7563	29.8325	-8.24729	119.109	62.2403	-2.6773	119.864	56.864	26.0721	98.3668	78.0098	14.7573	
12	0.1	67.3862	66.375	21.096	53.7952	57.8428	-5.0698	45.6663	54.0323	-26.0194	42.7778	48.7643	-48.8095	76.2874	86.3781	-43.6786	63.2812	64.0019	-53.6239	56.5105	50.9707	-30.7339	88.0634	70.4858	-50.6753	73.9522	44.0761	-51.2908	72.1529	40.6408	-22.3939	99.5807	52.8498	-47.0411	81.885	32.3852	-41.2971	78.8139	37.844	-14.1868	110.472	39.5003	-40.0921	89.1714	29.0938	-35.2937	86.9946	34.0478	-9.92222	120.601	66.5423	0.289414	120.349	58.0948	25.958	100.813	79.4002	19.4677	
13	0.108333	73.8774	67.3969	16.8133	56.8658	59.5155	-8.39519	52.5265	57.8981	-30.4065	48.9744	51.872	-51.0178	83.9612	88.8898	-40.8805	69.8157	68.2795	-55.5758	64.1344	52.2973	-28.2971	99.0167	74.4404	-47.855	80.9996	51.4043	-56.2902	78.1578	44.0617	-22.3177	106.729	56.0819	-48.4562	86.0975	42.7492	-44.7655	84.1492	38.1424	-19.0682	119.359	44.8268	-38.2726	95.6534	31.963	-35.4717	90.6645	37.2582	-14.3358	122.822	68.9985	3.8774	123.288	61.9436	25.7042	102.223	82.4911	20.3094	
14	0.116667	74.9758	69.727	13.8993	59.0211	60.5549	-11.3234	58.6367	59.8201	-35.237	61.1294	55.6428	-61.6539	84.0778	97.0558	-44.9826	75.483	72.9233	-57.0474	69.6528	57.0019	-34.9824	99.0452	84.6763	-49.0348	89.7266	59.9365	-59.8363	83.9898	49.0856	-27.8866	114.925	66.5712	-48.3282	94.9076	46.1229	-46.5688	91.9913	45.8442	-18.7921	125.516	56.5962	-38.7587	107.914	38.3875	-41.6904	99.0718	41.961	-13.7924	128.594	76.3312	1.8888	124.643	69.9011	27.7497	103.329	87.1938	15.6902	
15	0.125	74.6403	70.656	9.69785	66.6135	57.6626	-16.5947	64.1486	55.0165	-39.8504	70.4995	51.1441	-62.3573	80.7682	98.0813	-47.9736	75.2316	72.6795	-60.4906	73.7005	55.298	-38.5124	99.2661	87.6707	-54.4557	89.8206	60.9577	-60.9221	87.7831	49.4056	-33.8229	113.184	76.3699	-51.167	106.63	51.117	-53.2696	99.9466	46.0988	-23.5812	130.269	67.0503	-41.9097	116.193	46.6704	-43.9242	105.698	45.9334	-18.8004	129.154	88.1892	0.705448	128.353	81.5457	23.2447	100.772	91.5757	15.5835	
16	0.133333	76.822	68.8196	8.2436	67.9134	49.7339	-18.0533	72.3387	45.0581	-42.5878	80.6652	37.1116	-62.7209	75.5654	86.5186	-54.9464	73.8565	60.3922	-62.9656	80.5428	46.5127	-35.9472	95.1762	82.7529	-56.8022	92.5907	53.1381	-63.0906	96.3163	43.3221	-33.151	112.89	75.2726	-50.6082	106.645	46.3918	-49.8024	101.358	44.9278	-21.7874	131.192	70.2604	-42.1385	117.224	46.3362	-40.7513	108.325	47.6863	-16.8023	121.022	96.1099	-4.20379	122.975	92.3239	21.9381	95.3349	95.1132	10.1121	
17	0.141667	69.1243	67.5765	9.01877	68.9758	42.7399	-12.2669	68.8932	28.7057	-29.2073	79.9653	19.2424	-47.7973	70.9522	68.292	-55.5617	73.3129	40.8719	-56.1044	77.6377	35.8111	-28.5605	91.0285	63.0704	-57.9522	91.7337	34.0972	-51.6339	89.6223	34.9548	-21.3683	105.312	59.7446	-51.2513	105.514	33.3185	-38.2577	98.0152	38.9246	-14.9633	122.129	58.907	-42.187	114.73	37.5211	-31.2979	108.482	41.1136	-7.80374	113.844	96.0901	-11.3021	115.017	99.4454	17.2742	84.3347	95.9165	4.52907	
18	0.15	60.2334	70.1333	18.953	58.754	39.2277	2.03336	59.5803	20.5371	-9.90188	72.2159	4.58143	-27.5466	59.2181	52.7547	-45.027	63.2641	25.4693	-41.4828	71.8347	28.7373	-9.83226	79.1017	44.2606	-48.5624	83.7566	19.9625	-37.0077	86.6147	30.5533	-4.11277	102.264	45.5275	-40.1679	96.2503	21.9573	-25.2588	91.2126	34.7968	1.27845	115.569	47.7271	-31.5076	105.242	28.1947	-14.6735	100.926	39.109	3.95788	102.301	88.698	-14.8723	105.181	97.9441	11.4111	80.2022	95.2884	0.240941	
19	0.158333	54.8952	74.4072	21.4601	50.0009	43.3959	14.253	49.1717	23.8024	7.59967	57.8008	1.25806	-4.04529	51.1059	44.9416	-31.753	49.3192	17.5773	-21.3225	54.4535	26.3658	6.26677	73.2941	30.9309	-34.163	70.1657	10.9141	-13.9994	73.1631	29.8064	12.9996	88.9711	27.6561	-25.6676	80.2645	15.1827	-3.60174	80.9259	36.2735	17.3499	103.945	35.2304	-17.335	94.8327	21.0123	2.31312	86.1862	42.7767	18.2116	97.5102	78.4148	-14.5148	104.56	94.0258	6.78975	78.6374	93.2643	1.47574	
